<?xml version="1.0" encoding="utf-8"?>
<svg id="svg" version="1.1" xmlns="http://www.w3.org/2000/svg" width="400" height="400" viewBox="0, 0, 400,400" xmlns:bx="https://boxy-svg.com">
  <defs>
    <linearGradient id="color-0" bx:pinned="true" gradientUnits="userSpaceOnUse">
      <stop style="stop-color: #d8d8d8;"/>
    </linearGradient>
  </defs>
  <g id="svgg">
    <path id="path0" d="M0.000 200.000 L 0.000 400.000 200.000 400.000 L 400.000 400.000 400.000 200.000 L 400.000 0.000 200.000 0.000 L 0.000 0.000 0.000 200.000 M191.289 99.993 C 192.455 100.429,194.097 101.454,194.937 102.270 C 196.012 103.314,196.616 103.643,196.973 103.377 C 203.925 98.208,210.887 97.688,217.286 101.860 C 218.327 102.539,218.457 102.538,220.422 101.831 C 223.036 100.891,226.407 101.185,229.188 102.594 C 230.475 103.246,231.847 103.602,233.087 103.607 C 235.003 103.614,239.025 104.342,242.400 105.293 C 247.458 106.718,249.810 112.326,247.265 116.895 C 246.866 117.613,245.862 119.415,245.035 120.900 C 243.506 123.646,243.592 124.030,245.520 123.052 C 250.009 120.775,254.861 119.894,263.200 119.843 C 270.569 119.798,271.286 119.939,273.419 121.862 C 275.996 124.184,276.112 124.690,276.015 133.200 C 275.986 135.730,276.147 139.060,276.373 140.600 C 277.802 150.334,274.903 153.579,264.767 153.594 C 259.351 153.602,259.385 153.418,263.934 157.973 C 272.773 166.824,277.791 177.189,278.610 188.284 C 278.875 191.872,278.917 191.995,280.237 193.001 C 288.508 199.310,289.475 209.668,282.437 216.571 C 280.767 218.210,280.388 218.851,280.192 220.371 C 279.808 223.353,279.669 223.787,278.588 225.380 C 277.633 226.787,277.587 227.050,277.978 228.870 C 279.109 234.145,277.656 241.516,274.743 245.277 C 273.281 247.165,273.192 246.964,276.100 248.358 C 283.837 252.069,287.987 261.769,284.749 268.575 C 283.806 270.558,283.807 271.404,284.753 272.738 C 289.872 279.960,286.928 293.345,279.024 298.784 C 273.122 302.844,262.057 302.830,256.133 298.754 L 254.400 297.562 252.700 298.724 C 246.419 303.021,236.222 302.768,230.334 298.170 C 227.611 296.043,228.117 296.063,225.379 297.981 C 221.306 300.834,216.776 301.804,209.349 301.415 C 206.517 301.267,203.120 301.196,201.800 301.257 C 192.637 301.681,189.815 301.267,187.392 299.139 L 186.053 297.963 183.908 299.174 C 180.609 301.035,176.581 301.706,170.289 301.439 C 167.380 301.316,164.550 301.203,164.000 301.189 C 163.450 301.174,159.326 301.284,154.835 301.434 C 142.855 301.832,139.302 300.910,137.400 296.911 C 136.507 295.032,135.756 294.752,135.228 296.100 C 132.796 302.310,118.102 303.475,113.774 297.802 C 111.258 294.503,111.200 293.972,111.200 274.321 C 111.200 257.146,111.233 256.340,112.037 254.193 C 113.699 249.750,117.694 247.200,122.991 247.200 C 126.162 247.200,126.258 247.045,124.626 244.585 C 121.829 240.367,120.662 234.621,121.557 229.479 C 121.977 227.067,121.944 226.718,121.160 225.213 C 120.675 224.283,120.219 222.491,120.105 221.070 C 119.919 218.759,119.799 218.496,118.552 217.679 C 111.282 212.913,111.549 200.388,119.063 193.668 L 121.600 191.400 121.600 188.277 C 121.600 186.560,121.799 184.310,122.043 183.277 C 124.447 173.095,128.401 165.863,135.848 158.031 C 140.262 153.389,140.343 153.600,134.152 153.600 C 124.215 153.600,121.782 150.112,123.830 138.800 C 124.805 133.414,125.174 131.349,125.563 129.100 C 127.259 119.290,137.172 116.383,148.275 122.441 C 152.088 124.521,152.333 124.316,151.261 119.940 C 149.581 113.091,149.574 113.031,150.218 110.864 C 151.471 106.645,153.666 105.307,163.718 102.632 C 169.087 101.203,172.077 101.241,174.483 102.767 L 176.323 103.934 177.255 102.942 C 180.408 99.585,186.678 98.268,191.289 99.993 M204.812 106.845 C 198.269 109.456,198.144 116.684,204.533 122.922 C 209.319 127.595,210.084 129.076,208.469 130.538 C 206.860 131.994,204.966 130.982,204.562 128.450 C 203.893 124.269,198.400 124.623,198.400 128.847 C 198.400 138.654,215.005 139.547,216.122 129.800 L 216.351 127.800 215.828 129.858 C 214.267 135.999,207.195 138.164,201.453 134.259 C 198.980 132.577,197.819 127.153,199.773 126.410 C 201.728 125.667,203.981 126.861,203.994 128.646 C 204.011 131.055,207.394 132.575,208.938 130.869 C 210.605 129.026,209.797 127.462,204.357 122.000 C 197.189 114.802,200.205 105.975,209.507 106.928 C 214.236 107.412,218.308 112.835,215.815 115.328 C 214.450 116.693,211.200 115.920,211.200 114.230 C 211.200 112.063,208.567 110.699,206.959 112.034 C 205.397 113.330,206.418 115.794,210.073 119.548 C 214.425 124.019,214.772 124.455,215.420 126.274 C 215.771 127.256,215.971 127.501,215.982 126.961 C 216.015 125.402,214.658 123.414,210.953 119.595 C 207.172 115.695,206.395 114.304,207.180 112.837 C 208.122 111.077,210.076 111.918,210.586 114.303 C 211.349 117.868,216.800 117.029,216.800 113.347 C 216.800 108.431,210.033 104.761,204.812 106.845 M183.610 107.313 C 182.519 107.865,182.304 108.696,181.616 114.994 C 181.399 116.977,181.027 120.310,180.789 122.400 C 179.099 137.244,179.063 136.800,181.943 136.800 C 184.475 136.800,185.233 136.176,185.492 133.882 C 185.886 130.389,189.615 129.913,190.768 133.209 C 191.696 135.863,191.854 136.000,193.995 136.000 C 197.869 136.000,197.891 135.267,194.402 122.600 C 194.220 121.940,193.695 120.013,193.235 118.319 C 191.827 113.131,190.357 108.646,189.755 107.700 C 189.086 106.651,185.380 106.417,183.610 107.313 M189.350 108.100 C 190.571 110.033,195.505 127.457,196.381 132.931 C 196.723 135.069,196.170 135.600,193.598 135.600 C 192.283 135.600,192.031 135.305,191.200 132.806 L 190.600 131.000 188.468 130.878 C 185.826 130.727,185.371 131.091,185.035 133.623 C 184.753 135.745,183.996 136.400,181.823 136.400 C 180.089 136.400,179.898 135.652,180.379 130.722 C 181.228 122.011,182.825 109.392,183.188 108.531 C 183.839 106.988,188.444 106.666,189.350 108.100 M221.842 109.015 C 221.289 109.568,221.206 110.111,221.417 111.795 C 221.940 115.983,222.343 116.645,222.116 112.944 C 221.860 108.776,222.057 108.516,224.959 109.183 C 226.939 109.639,227.096 109.924,227.387 113.581 C 228.043 121.849,228.854 122.227,232.145 115.800 C 234.464 111.271,234.768 111.079,238.054 112.063 C 240.052 112.662,240.016 113.195,237.766 116.400 C 230.721 126.434,230.120 127.532,229.012 132.402 C 227.479 139.134,227.837 138.540,225.481 138.260 C 222.142 137.865,222.074 137.657,223.341 131.712 L 224.430 126.600 223.417 121.600 C 222.860 118.850,222.479 117.500,222.571 118.600 C 222.662 119.700,222.962 121.770,223.237 123.200 C 223.832 126.293,223.838 127.163,223.284 129.800 C 221.555 138.029,221.548 137.992,225.068 138.780 C 227.689 139.367,228.194 139.034,228.629 136.431 C 228.760 135.644,229.012 134.460,229.188 133.800 C 229.364 133.140,229.739 131.520,230.020 130.200 C 230.302 128.880,230.751 127.530,231.019 127.200 C 233.204 124.505,240.000 113.849,240.000 113.117 C 240.000 112.392,239.660 112.089,238.406 111.697 C 234.677 110.533,233.945 111.029,230.997 116.714 C 228.914 120.732,228.085 119.964,228.023 113.960 C 227.997 111.441,227.403 109.364,226.623 109.064 C 224.850 108.384,222.498 108.360,221.842 109.015 M164.600 110.153 C 157.089 112.173,157.397 111.807,158.808 117.023 C 159.779 120.615,161.212 126.473,162.421 131.800 C 164.678 141.739,163.901 140.837,169.000 139.437 C 170.320 139.075,172.750 138.497,174.400 138.153 C 178.661 137.266,179.121 136.624,177.787 133.431 C 177.007 131.563,176.298 131.311,174.031 132.094 C 170.197 133.418,169.728 133.401,169.248 131.923 C 168.280 128.946,168.460 127.887,170.000 127.484 C 173.261 126.629,173.600 126.390,173.600 124.939 C 173.600 122.433,172.578 120.666,171.301 120.961 C 167.054 121.944,167.051 121.943,166.231 118.779 C 165.574 116.247,165.969 115.738,168.897 115.349 C 172.469 114.876,173.343 113.291,171.848 110.000 C 171.221 108.619,170.227 108.640,164.600 110.153 M171.872 111.862 C 172.136 113.826,171.728 114.193,168.416 114.965 C 165.024 115.757,164.949 115.869,165.775 118.879 C 166.606 121.906,167.177 122.465,168.925 121.964 C 171.358 121.266,172.281 121.482,172.761 122.860 C 173.602 125.274,173.373 125.921,171.500 126.424 C 167.870 127.398,167.870 127.398,168.166 129.630 C 168.726 133.849,169.306 134.187,173.533 132.760 C 176.429 131.782,176.924 131.986,177.667 134.465 C 178.316 136.632,178.033 136.809,171.359 138.392 C 164.239 140.082,164.855 140.482,163.270 133.151 C 162.539 129.768,161.144 123.969,160.170 120.265 C 159.197 116.561,158.400 113.370,158.400 113.175 C 158.400 112.483,160.928 111.532,165.732 110.418 C 171.228 109.143,171.517 109.211,171.872 111.862 M186.243 118.900 C 185.457 125.374,185.645 126.185,187.876 125.929 C 189.333 125.762,189.484 124.745,188.568 121.259 C 187.386 116.758,186.599 115.960,186.243 118.900 M188.224 121.826 C 189.089 125.149,189.015 125.600,187.600 125.600 L 186.400 125.600 186.400 122.633 C 186.400 117.571,187.041 117.288,188.224 121.826 M250.400 159.486 C 250.400 159.912,251.887 161.200,252.378 161.200 C 253.195 161.200,259.782 167.927,262.077 171.106 C 266.309 176.969,269.194 186.125,267.834 189.379 C 267.045 191.270,267.081 191.266,248.537 191.124 C 239.703 191.056,232.683 191.132,232.937 191.294 C 233.634 191.736,265.378 191.665,266.553 191.218 C 269.599 190.060,269.321 184.080,265.864 176.400 C 263.443 171.022,250.400 156.756,250.400 159.486 M253.464 226.700 C 253.363 226.865,255.745 227.000,258.758 227.000 C 266.429 227.000,267.785 228.052,267.783 234.000 C 267.781 238.294,265.399 242.082,261.679 243.707 C 260.369 244.279,226.192 244.661,226.539 244.099 C 226.659 243.904,226.225 243.823,225.574 243.918 C 221.291 244.547,226.037 244.800,242.076 244.796 L 260.200 244.792 262.203 243.859 C 268.802 240.786,270.745 229.864,265.180 227.119 C 263.733 226.406,253.860 226.052,253.464 226.700 M193.891 255.068 C 191.571 255.459,191.563 255.521,191.687 273.585 L 191.800 290.070 192.922 291.035 C 194.409 292.313,197.408 292.381,198.946 291.171 L 200.000 290.342 200.000 273.433 C 200.000 257.579,199.955 256.483,199.271 255.864 C 198.497 255.164,195.739 254.756,193.891 255.068 M240.000 255.173 C 233.301 256.161,230.426 261.685,230.408 273.600 C 230.388 286.293,234.156 292.215,242.200 292.135 C 250.726 292.050,253.705 287.205,253.718 273.400 C 253.733 258.851,249.868 253.717,240.000 255.173 M265.000 255.072 C 253.868 256.558,253.912 268.604,265.080 276.857 C 269.166 279.877,269.702 280.579,269.523 282.677 C 269.171 286.800,264.000 285.680,264.000 281.482 C 264.000 279.245,260.309 278.356,257.962 280.027 C 256.024 281.407,256.435 285.903,258.770 288.871 C 263.008 294.258,274.325 293.384,276.957 287.467 C 279.956 280.727,277.764 275.184,270.000 269.874 C 266.569 267.527,264.967 265.266,265.430 263.422 C 265.945 261.370,268.976 261.416,269.412 263.483 C 269.865 265.631,270.128 265.805,272.792 265.728 C 275.869 265.638,276.800 264.939,276.800 262.718 C 276.800 257.673,271.457 254.211,265.000 255.072 M120.662 255.931 C 120.068 256.588,120.000 258.392,120.000 273.470 C 120.000 292.887,119.779 291.818,123.791 291.780 C 127.764 291.742,128.388 290.484,128.397 282.490 C 128.400 279.705,128.915 279.200,131.748 279.200 C 140.359 279.200,144.567 264.138,137.684 257.952 C 135.137 255.662,133.283 255.200,126.656 255.200 C 121.998 255.200,121.240 255.293,120.662 255.931 M144.800 256.000 C 144.025 256.775,144.000 257.333,144.000 273.571 L 144.000 290.342 145.035 291.156 C 146.729 292.488,160.177 291.983,161.500 290.538 C 162.486 289.462,162.617 288.196,161.980 285.903 C 161.490 284.138,161.204 284.039,156.200 283.900 L 152.600 283.800 152.600 280.400 L 152.600 277.000 155.400 276.891 C 158.823 276.758,159.600 276.083,159.600 273.245 C 159.600 270.240,158.891 269.600,155.562 269.600 L 152.769 269.600 152.884 266.144 L 153.000 262.688 156.861 262.766 C 161.437 262.860,162.000 262.447,162.000 259.000 C 162.000 255.228,161.935 255.200,153.177 255.200 C 146.133 255.200,145.544 255.256,144.800 256.000 M166.295 255.895 C 165.658 256.599,165.600 258.076,165.600 273.531 C 165.600 293.820,165.020 292.007,171.500 291.986 C 183.396 291.946,187.537 287.869,188.143 275.600 L 188.350 271.400 187.815 276.073 C 186.444 288.044,183.238 291.192,172.272 291.334 C 165.327 291.424,166.000 293.350,166.000 273.386 C 166.000 254.001,165.567 255.592,170.831 255.614 C 182.023 255.660,186.460 259.093,187.565 268.559 C 187.886 271.312,187.898 271.336,187.948 269.320 C 188.102 263.158,184.893 257.926,179.898 256.192 C 176.613 255.052,167.243 254.847,166.295 255.895 M205.600 256.000 C 204.654 256.946,204.329 288.128,205.244 290.137 C 206.948 293.877,219.915 292.148,223.835 287.657 C 229.423 281.255,228.911 263.406,223.000 258.600 C 218.977 255.329,207.923 253.677,205.600 256.000 M134.600 256.459 C 138.796 257.851,140.627 261.519,140.317 267.905 C 139.984 274.771,137.314 277.877,130.975 278.775 C 127.584 279.255,127.822 278.819,127.668 284.832 C 127.514 290.863,127.306 291.200,123.734 291.200 C 120.258 291.200,120.400 291.972,120.400 273.134 L 120.400 256.845 121.300 256.191 C 122.402 255.389,131.959 255.582,134.600 256.459 M160.576 256.133 C 161.572 256.861,161.889 260.301,161.062 261.400 C 160.524 262.115,160.067 262.188,156.786 262.087 C 152.114 261.944,152.000 262.038,152.000 266.000 C 152.000 269.701,152.099 269.810,155.757 270.135 C 159.015 270.425,158.842 270.301,159.092 272.522 C 159.420 275.425,158.853 276.000,155.666 276.000 C 152.153 276.000,152.000 276.187,152.000 280.490 C 152.000 284.774,152.322 285.026,157.236 284.595 C 161.017 284.263,161.600 284.677,161.600 287.697 C 161.600 291.141,161.457 291.200,153.171 291.200 C 149.263 291.200,145.781 291.091,145.433 290.957 C 144.411 290.565,144.477 256.628,145.500 256.032 C 146.602 255.390,159.679 255.477,160.576 256.133 M198.869 256.262 C 200.005 257.291,199.997 289.021,198.860 290.425 C 197.684 291.877,194.269 291.792,192.966 290.278 L 192.000 289.155 192.000 273.178 C 192.000 257.733,192.027 257.173,192.800 256.400 C 193.848 255.352,197.764 255.263,198.869 256.262 M215.471 256.025 C 224.274 257.221,227.721 262.896,227.089 275.155 C 226.671 283.284,224.720 287.486,220.319 289.739 C 217.318 291.276,209.480 292.062,207.095 291.065 L 205.600 290.441 205.596 275.320 C 205.593 267.004,205.483 259.545,205.351 258.745 C 204.844 255.681,207.561 254.951,215.471 256.025 M247.440 256.558 C 253.113 259.199,255.559 274.231,252.008 284.621 C 248.630 294.501,235.178 294.304,232.217 284.332 C 230.564 278.767,230.550 268.070,232.188 262.571 C 233.949 256.659,241.372 253.732,247.440 256.558 M271.507 256.219 C 275.325 257.814,277.847 263.074,275.500 264.546 C 272.915 266.167,270.576 265.741,269.984 263.541 C 269.351 261.188,266.714 260.520,265.314 262.358 C 263.810 264.334,265.863 267.752,270.400 270.822 C 276.734 275.108,279.176 281.085,276.766 286.400 C 272.615 295.558,257.255 292.988,257.209 283.127 C 257.201 281.512,257.360 281.141,258.362 280.427 C 260.726 278.744,263.600 279.645,263.600 282.069 C 263.600 285.248,267.438 286.870,269.500 284.563 C 271.538 282.282,270.005 279.494,264.800 276.013 C 257.399 271.064,255.104 263.528,259.451 258.449 C 261.719 255.799,267.808 254.673,271.507 256.219 M241.323 262.031 C 237.294 263.531,237.274 283.587,241.301 284.975 C 244.583 286.107,245.675 282.778,245.515 272.129 C 245.378 263.017,244.481 260.855,241.323 262.031 M128.163 262.460 C 127.682 263.238,127.586 271.227,128.048 272.089 C 129.580 274.951,133.845 270.558,133.506 266.467 C 133.239 263.247,129.438 260.397,128.163 262.460 M174.042 262.549 C 173.720 262.937,173.618 266.252,173.693 273.849 L 173.800 284.600 175.426 284.719 C 179.099 284.989,180.127 282.216,179.935 272.562 C 179.809 266.236,179.740 265.716,178.868 264.494 C 177.368 262.390,174.975 261.426,174.042 262.549 M213.475 262.582 C 212.881 263.176,212.833 282.394,213.421 284.300 C 213.825 285.610,217.343 284.458,218.241 282.720 C 218.968 281.315,219.595 276.625,219.514 273.200 C 219.452 270.617,219.451 270.614,219.327 272.800 C 218.828 281.591,216.804 285.933,214.010 284.206 C 213.075 283.628,213.492 262.800,214.438 262.800 C 216.784 262.800,218.127 264.545,218.751 268.400 C 219.083 270.454,219.109 270.494,219.151 269.000 C 219.273 264.619,215.596 260.461,213.475 262.582 M130.918 262.863 C 134.542 264.803,133.343 272.313,129.473 271.920 L 128.294 271.800 128.305 267.529 C 128.319 262.201,128.633 261.640,130.918 262.863 M244.160 263.729 C 245.194 265.120,245.438 280.299,244.464 282.647 C 243.300 285.453,240.536 285.366,239.676 282.497 C 239.069 280.470,239.030 266.498,239.628 264.927 C 240.667 262.193,242.633 261.674,244.160 263.729 M177.721 263.676 C 179.639 265.637,180.267 278.873,178.600 282.193 C 177.776 283.834,175.963 284.778,174.622 284.264 C 173.951 284.006,173.642 263.693,174.300 263.031 C 174.727 262.602,177.111 263.051,177.721 263.676 " stroke="none" fill-rule="evenodd" style="fill: rgb(255, 107, 53);"/>
    <path id="path1" d="M204.000 99.771 C 201.741 100.398,200.221 101.187,198.259 102.750 L 196.718 103.977 194.562 102.221 C 189.805 98.346,182.529 98.556,177.943 102.699 C 176.592 103.920,176.226 104.075,175.666 103.668 C 172.410 101.297,169.947 101.128,163.600 102.840 C 150.308 106.427,148.479 108.828,151.226 119.093 C 152.667 124.479,152.317 124.888,148.224 122.599 C 137.056 116.353,127.357 119.442,125.613 129.800 C 125.428 130.900,124.812 134.500,124.244 137.800 C 122.020 150.722,123.956 153.600,134.871 153.600 C 140.468 153.600,140.590 153.748,137.444 156.723 C 127.905 165.745,121.640 178.546,121.609 189.081 L 121.600 191.962 119.848 193.167 C 112.227 198.411,111.207 210.154,117.813 216.603 C 120.258 218.990,120.276 219.023,120.490 221.690 C 120.619 223.294,121.021 224.908,121.488 225.701 C 122.004 226.575,122.166 227.295,121.964 227.814 C 120.339 231.970,122.465 242.382,125.643 245.830 C 126.649 246.922,126.285 247.199,123.833 247.205 C 117.269 247.220,113.210 250.148,111.642 256.000 C 110.963 258.537,111.217 291.960,111.932 294.090 C 113.633 299.158,116.802 301.002,123.800 300.995 C 130.578 300.989,133.791 299.507,135.229 295.723 C 135.729 294.408,136.561 294.582,137.116 296.118 C 138.711 300.529,141.399 301.291,155.000 301.192 C 160.940 301.149,167.420 301.240,169.400 301.394 C 174.365 301.782,180.063 300.894,183.368 299.216 C 185.591 298.088,187.200 297.900,187.200 298.769 C 187.200 300.283,190.632 301.000,198.000 301.026 C 202.070 301.040,206.750 301.188,208.400 301.356 C 215.756 302.104,221.616 300.521,227.448 296.210 C 227.827 295.930,228.346 296.166,229.288 297.046 C 235.034 302.419,245.779 303.218,252.265 298.755 C 254.331 297.334,254.364 297.334,256.480 298.755 C 260.647 301.552,267.954 302.429,273.779 300.831 C 285.197 297.699,290.550 284.187,284.771 273.083 L 283.525 270.688 284.562 268.569 C 288.124 261.296,283.329 251.319,274.694 248.036 C 273.387 247.539,273.336 247.095,274.413 245.582 C 277.226 241.631,278.631 235.365,277.925 229.914 C 277.564 227.126,277.600 226.721,278.302 225.714 C 279.382 224.163,280.000 222.171,280.000 220.240 C 280.000 218.782,280.211 218.418,281.900 216.952 C 289.078 210.724,288.091 198.402,279.984 193.037 L 278.400 191.989 278.400 188.819 C 278.400 178.819,273.074 167.579,263.900 158.221 C 259.251 153.479,259.281 153.600,262.771 153.600 C 274.282 153.600,276.675 151.522,276.131 142.000 C 275.949 138.810,275.800 133.770,275.800 130.800 C 275.800 121.490,274.105 120.000,263.513 120.001 C 255.478 120.001,251.050 120.766,246.026 123.021 C 243.262 124.261,242.762 124.144,243.903 122.523 C 251.727 111.412,248.084 104.601,233.913 103.848 C 231.836 103.738,230.344 103.387,228.715 102.624 C 225.920 101.316,222.367 101.133,220.052 102.177 L 218.521 102.867 216.455 101.596 C 212.778 99.333,208.065 98.643,204.000 99.771 M211.400 106.442 C 215.351 107.523,218.415 112.976,216.511 115.536 C 214.876 117.735,210.400 116.917,210.400 114.419 C 210.400 112.599,209.311 111.699,207.974 112.414 C 206.070 113.433,207.064 115.582,211.387 119.800 C 219.389 127.606,217.420 136.771,207.735 136.793 C 201.190 136.808,195.804 130.811,198.570 126.589 C 200.060 124.316,204.800 125.672,204.800 128.371 C 204.800 130.868,208.060 131.831,208.886 129.579 C 209.308 128.430,208.123 126.576,205.491 124.265 C 201.135 120.441,199.800 118.138,199.800 114.451 C 199.800 108.150,204.863 104.654,211.400 106.442 M189.520 107.100 C 190.292 107.769,192.086 112.984,193.956 120.000 C 194.396 121.650,195.196 124.620,195.733 126.600 C 198.117 135.380,198.011 136.000,194.132 136.000 C 191.911 136.000,190.406 134.689,190.401 132.749 C 190.396 130.179,186.388 130.971,185.800 133.659 C 185.143 136.662,183.012 137.882,180.349 136.779 C 178.972 136.209,178.954 135.935,179.828 128.800 C 180.165 126.050,180.605 122.270,180.807 120.400 C 182.350 106.081,182.143 106.543,187.056 106.436 C 188.101 106.413,189.010 106.658,189.520 107.100 M225.169 108.427 C 227.529 108.971,227.897 109.600,228.194 113.600 C 228.682 120.151,228.884 120.375,230.838 116.524 C 233.432 111.415,234.167 110.674,236.327 110.998 C 241.535 111.779,241.493 112.220,235.360 121.242 C 230.614 128.223,230.336 128.837,229.222 134.800 C 228.409 139.149,228.279 139.329,226.082 139.118 C 221.518 138.679,221.280 138.113,222.746 131.200 L 223.637 127.000 222.609 121.000 C 220.982 111.505,220.873 109.076,222.047 108.512 C 223.241 107.939,223.069 107.943,225.169 108.427 M172.220 110.187 C 173.602 113.494,172.960 114.540,168.908 115.577 C 166.227 116.264,166.201 116.283,166.305 117.560 C 166.504 120.006,167.483 121.729,168.499 121.421 C 171.387 120.548,172.649 120.667,173.108 121.856 C 174.487 125.426,173.984 126.930,171.256 127.391 C 168.780 127.809,168.659 127.994,169.189 130.548 C 169.739 133.197,169.955 133.260,173.890 131.909 L 176.486 131.019 177.238 131.947 C 178.323 133.287,178.932 135.806,178.408 136.785 C 177.988 137.570,177.162 137.855,172.600 138.794 C 171.280 139.065,169.144 139.623,167.854 140.033 C 164.476 141.107,164.371 140.991,162.837 134.526 C 159.667 121.170,158.798 117.694,158.218 116.050 C 156.898 112.310,157.370 111.853,164.600 109.872 C 170.011 108.389,171.495 108.451,172.220 110.187 M186.740 122.000 C 186.707 123.100,186.662 124.225,186.640 124.500 C 186.618 124.775,187.005 125.058,187.500 125.128 C 188.542 125.276,188.593 124.939,187.967 122.020 C 187.413 119.437,186.817 119.428,186.740 122.000 M143.008 126.955 C 147.303 128.284,152.102 131.831,155.657 136.304 C 158.323 139.659,158.322 139.686,155.327 141.769 C 154.087 142.632,152.176 144.133,151.081 145.106 C 148.989 146.964,147.360 147.178,144.648 145.952 C 144.182 145.741,140.830 145.441,137.200 145.285 L 130.600 145.000 130.615 143.000 C 130.639 139.746,132.849 127.491,133.563 126.653 C 134.337 125.745,139.644 125.915,143.008 126.955 M268.410 126.606 C 269.009 126.976,268.924 143.716,268.320 144.320 C 268.038 144.602,266.676 144.801,265.020 144.803 C 260.964 144.808,255.458 145.495,252.061 146.419 L 249.123 147.219 244.893 144.523 C 242.567 143.040,240.119 141.534,239.453 141.177 C 236.678 139.689,237.029 138.581,241.800 133.779 C 245.316 130.239,248.982 128.046,252.800 127.200 C 257.000 126.268,267.234 125.879,268.410 126.606 M211.040 143.779 C 215.591 144.379,220.919 145.377,223.000 146.018 C 223.660 146.221,225.820 146.858,227.800 147.433 C 229.780 148.008,232.350 148.910,233.512 149.439 C 234.673 149.968,235.722 150.400,235.841 150.400 C 238.591 150.400,252.500 159.653,257.800 165.008 C 266.499 173.796,271.662 187.172,267.768 190.830 L 266.736 191.800 200.432 191.903 L 134.129 192.007 132.764 191.089 C 129.219 188.705,131.864 177.767,137.924 169.753 C 141.924 164.464,149.670 157.644,155.313 154.443 C 156.241 153.917,157.720 153.081,158.600 152.587 C 171.562 145.301,194.003 141.532,211.040 143.779 M163.028 206.997 C 163.483 207.097,164.681 208.242,165.690 209.542 C 170.457 215.680,177.611 215.603,184.435 209.340 L 187.203 206.800 199.502 206.802 L 211.800 206.804 214.860 209.751 C 221.106 215.765,227.872 215.596,234.303 209.264 L 236.805 206.800 246.827 206.800 L 256.848 206.800 259.024 208.858 C 262.399 212.050,262.666 211.946,250.700 212.081 L 240.200 212.200 237.167 214.054 C 227.611 219.894,219.772 219.893,208.824 214.050 C 207.869 213.541,207.896 212.871,208.877 212.709 C 210.634 212.417,199.779 211.924,194.800 212.069 C 189.476 212.224,189.359 212.258,184.000 215.282 C 178.881 218.171,170.682 219.173,165.761 217.512 C 160.354 215.687,154.615 212.296,158.000 212.926 C 159.215 213.152,159.294 213.122,158.600 212.699 C 158.047 212.363,154.769 212.169,148.000 212.071 C 138.440 211.934,137.321 211.814,137.927 210.997 C 139.801 208.470,142.119 206.993,144.517 206.800 C 147.363 206.571,161.784 206.725,163.028 206.997 M152.854 215.331 C 154.255 215.858,156.225 216.664,157.232 217.124 C 168.347 222.187,174.232 222.167,187.297 217.023 C 196.129 213.545,198.272 213.448,205.000 216.220 C 218.551 221.804,224.069 222.215,234.600 218.426 C 245.181 214.620,246.172 214.339,249.800 214.125 C 255.180 213.807,258.809 214.450,262.484 216.372 C 265.449 217.923,265.648 217.970,267.651 217.590 C 271.551 216.851,273.171 220.146,270.174 222.724 L 269.099 223.649 241.649 223.368 C 209.486 223.039,207.588 223.169,201.083 226.145 C 196.157 228.398,192.678 228.361,188.010 226.005 C 182.619 223.285,184.032 223.400,156.066 223.400 L 130.732 223.400 129.766 222.278 C 127.329 219.446,128.892 217.171,133.046 217.505 C 135.227 217.680,135.824 217.585,136.725 216.919 C 140.970 213.780,147.125 213.174,152.854 215.331 M188.200 227.851 C 192.687 230.023,196.093 230.023,201.532 227.853 L 205.264 226.364 234.863 226.363 C 268.165 226.362,266.066 226.168,267.761 229.400 C 270.334 234.307,267.767 241.302,262.295 244.293 C 260.154 245.463,139.999 245.180,137.492 244.000 C 131.213 241.041,128.705 232.453,132.787 227.884 L 133.934 226.600 151.667 226.366 C 161.420 226.237,172.910 226.170,177.200 226.217 L 185.000 226.302 188.200 227.851 M134.909 255.766 C 139.490 257.746,141.000 260.540,141.000 267.036 L 141.000 271.871 139.548 274.236 C 137.727 277.202,134.951 279.028,131.657 279.426 C 128.427 279.816,128.401 279.859,128.395 284.749 C 128.392 287.087,128.279 289.412,128.144 289.916 C 127.562 292.086,122.402 292.838,120.582 291.018 L 119.600 290.036 119.600 273.592 C 119.600 256.486,119.655 255.901,121.326 255.175 C 122.760 254.552,133.146 255.004,134.909 255.766 M161.487 255.714 C 162.026 256.254,162.200 257.068,162.200 259.050 C 162.200 262.800,161.511 263.303,156.620 263.129 L 153.000 263.000 152.884 266.041 L 152.768 269.081 155.652 269.323 C 159.080 269.610,159.655 270.067,159.873 272.670 C 160.143 275.912,159.531 276.563,155.990 276.800 L 153.000 277.000 153.000 280.400 L 153.000 283.800 156.600 283.836 C 158.580 283.856,160.486 283.901,160.836 283.936 C 162.660 284.119,163.062 289.821,161.346 291.171 C 159.893 292.314,145.964 292.454,144.731 291.338 C 143.626 290.337,143.596 256.876,144.700 255.914 C 145.884 254.883,146.380 254.828,153.687 254.915 C 159.886 254.989,160.862 255.089,161.487 255.714 M179.689 255.930 C 186.068 258.035,188.202 262.468,188.196 273.600 C 188.189 287.601,184.855 291.557,172.800 291.867 C 164.531 292.080,165.423 294.227,165.288 273.777 L 165.175 256.789 166.229 255.735 L 167.283 254.681 172.374 254.939 C 175.596 255.102,178.281 255.466,179.689 255.930 M199.431 255.794 L 200.425 256.789 200.313 273.630 L 200.200 290.471 199.256 291.236 C 198.184 292.103,194.512 292.302,193.140 291.568 C 191.324 290.596,191.200 289.406,191.200 272.993 C 191.200 254.075,190.963 254.950,196.118 254.846 C 198.089 254.807,198.585 254.949,199.431 255.794 M218.568 255.770 C 229.854 259.167,231.880 283.523,221.415 289.991 C 217.852 292.193,207.646 292.934,205.726 291.130 L 204.800 290.261 204.813 273.430 C 204.826 256.134,204.860 255.741,206.400 255.067 C 207.389 254.635,216.554 255.164,218.568 255.770 M246.528 255.229 C 252.150 256.790,255.224 265.820,254.031 277.264 C 252.898 288.123,250.262 291.778,243.200 292.280 C 233.695 292.955,230.117 287.229,230.489 271.938 C 230.831 257.868,236.135 252.343,246.528 255.229 M271.832 255.559 C 277.481 258.125,279.015 264.894,274.200 266.010 C 270.993 266.753,269.200 265.966,269.200 263.814 C 269.200 262.502,267.852 261.757,266.549 262.350 C 264.364 263.346,265.801 266.575,269.684 269.394 C 277.676 275.195,280.050 280.485,277.488 286.782 C 273.741 295.990,257.894 294.095,256.549 284.278 C 255.798 278.798,263.286 276.174,264.156 281.612 C 264.640 284.642,266.897 286.000,268.674 284.330 C 270.480 282.634,269.336 280.099,265.589 277.490 C 257.334 271.745,254.681 265.749,257.731 259.735 C 259.954 255.350,266.866 253.303,271.832 255.559 M241.321 262.909 C 239.912 263.541,239.490 265.409,239.297 271.866 C 239.014 281.340,239.796 284.614,242.273 284.329 C 244.321 284.093,244.600 282.805,244.600 273.600 C 244.600 263.266,244.107 261.657,241.321 262.909 M128.667 263.067 C 128.051 263.682,128.376 271.616,129.027 271.866 C 131.922 272.976,134.255 266.219,131.818 263.782 C 130.890 262.854,129.251 262.482,128.667 263.067 M174.671 263.062 C 174.522 263.211,174.400 267.983,174.400 273.667 L 174.400 284.000 175.738 284.000 C 178.481 284.000,179.200 281.858,179.200 273.687 C 179.200 267.034,178.771 264.648,177.425 263.802 C 176.283 263.084,174.995 262.738,174.671 263.062 M214.005 263.394 C 213.044 264.552,213.795 283.773,214.807 283.931 C 219.632 284.683,220.509 265.272,215.737 263.339 C 214.684 262.913,214.397 262.922,214.005 263.394 " stroke="none" fill="#0b100b" fill-rule="evenodd"/>
    <path id="path2" d="M191.200 143.785 C 190.870 143.865,188.980 144.137,187.000 144.390 C 159.507 147.900,135.528 164.998,131.998 183.608 C 130.731 190.293,131.500 191.224,138.226 191.142 L 143.000 191.084 139.139 190.790 C 134.485 190.435,134.400 190.390,134.400 188.276 C 134.402 182.063,138.387 172.259,142.885 167.400 C 144.129 166.056,144.395 166.700,143.273 168.338 C 139.189 174.299,140.162 182.630,145.245 185.223 C 148.078 186.668,150.164 186.735,196.507 186.861 C 233.380 186.961,242.376 187.085,242.220 187.493 C 241.532 189.285,251.754 183.251,253.666 180.736 C 258.026 175.000,257.362 167.586,251.935 161.421 C 251.091 160.462,250.400 159.474,250.400 159.226 C 250.400 158.978,250.085 158.660,249.700 158.519 C 249.315 158.378,248.010 157.607,246.800 156.806 C 238.183 151.102,226.893 146.879,214.600 144.763 C 210.196 144.005,193.222 143.295,191.200 143.785 M199.186 155.174 C 200.512 157.651,198.784 160.651,196.671 159.539 C 195.051 158.686,194.694 156.900,195.823 155.289 C 196.622 154.148,198.601 154.080,199.186 155.174 M184.496 155.300 C 186.113 156.547,184.983 160.400,183.000 160.400 C 182.670 160.400,182.040 160.040,181.600 159.600 C 179.586 157.586,182.277 153.590,184.496 155.300 M213.538 155.939 C 214.645 156.791,214.930 159.420,213.980 160.021 C 212.279 161.097,210.400 159.836,210.400 157.618 C 210.400 155.248,211.720 154.541,213.538 155.939 M231.087 159.813 C 231.971 161.668,231.520 163.202,230.092 163.194 C 227.617 163.180,226.155 159.977,228.026 158.667 C 229.189 157.852,230.361 158.291,231.087 159.813 M170.567 159.043 C 171.481 159.394,171.366 161.681,170.371 162.946 C 169.423 164.151,168.194 164.300,167.131 163.338 C 165.208 161.597,168.030 158.069,170.567 159.043 M243.325 164.966 C 244.748 166.284,245.090 167.816,244.185 168.816 C 243.027 170.096,241.487 169.644,240.465 167.726 C 238.955 164.891,241.056 162.863,243.325 164.966 M157.920 165.680 C 159.219 166.979,157.936 170.800,156.200 170.800 C 155.000 170.800,153.898 169.211,154.160 167.858 C 154.563 165.768,156.745 164.505,157.920 165.680 M200.320 168.880 C 201.013 169.573,200.910 171.616,200.138 172.469 C 198.769 173.982,196.800 172.910,196.800 170.651 C 196.800 169.089,197.412 168.400,198.800 168.400 C 199.372 168.400,200.056 168.616,200.320 168.880 M183.186 169.574 C 184.101 171.284,182.831 174.400,181.218 174.400 C 180.456 174.400,179.200 172.815,179.200 171.854 C 179.200 169.546,182.240 167.807,183.186 169.574 M215.990 169.878 C 216.999 171.161,216.915 172.701,215.796 173.440 C 214.024 174.609,211.920 172.115,212.777 169.861 C 213.321 168.430,214.858 168.439,215.990 169.878 M233.579 171.670 C 234.616 172.782,235.056 175.010,234.396 175.804 C 233.301 177.124,231.081 176.265,230.421 174.264 C 229.485 171.426,231.676 169.627,233.579 171.670 M238.525 188.807 C 235.496 189.684,229.340 190.355,223.200 190.478 C 216.300 190.615,213.501 191.059,219.037 191.137 C 221.478 191.172,225.708 191.305,228.437 191.433 C 231.840 191.592,233.218 191.538,232.821 191.260 C 232.351 190.932,232.427 190.817,233.221 190.652 C 237.009 189.868,239.946 189.068,240.800 188.589 C 242.078 187.872,241.594 187.919,238.525 188.807 M154.120 191.098 C 156.055 191.172,159.115 191.171,160.920 191.097 C 162.724 191.023,161.140 190.963,157.400 190.964 C 153.660 190.964,152.184 191.025,154.120 191.098 M189.500 191.096 C 190.875 191.174,193.125 191.174,194.500 191.096 C 195.875 191.018,194.750 190.954,192.000 190.954 C 189.250 190.954,188.125 191.018,189.500 191.096 M201.100 191.098 C 203.355 191.170,207.045 191.170,209.300 191.098 C 211.555 191.027,209.710 190.969,205.200 190.969 C 200.690 190.969,198.845 191.027,201.100 191.098 M141.000 214.889 C 140.340 215.123,138.847 215.941,137.683 216.707 C 135.627 218.060,135.488 218.092,132.807 217.828 C 129.440 217.496,128.243 218.490,129.208 220.818 C 130.240 223.310,128.979 223.200,156.502 223.200 C 184.382 223.200,182.912 223.074,188.689 225.952 C 192.686 227.943,196.459 227.894,201.056 225.792 C 206.756 223.184,206.332 223.213,239.430 223.206 L 269.461 223.200 270.330 222.274 C 272.648 219.807,271.127 217.263,267.739 217.944 C 265.517 218.390,265.455 218.376,262.645 216.840 C 256.128 213.277,249.426 213.381,239.000 217.206 C 224.413 222.558,219.036 222.553,206.502 217.175 C 199.764 214.284,194.936 213.868,191.104 215.850 C 190.416 216.205,187.952 217.209,185.627 218.081 C 174.193 222.367,168.437 222.260,157.388 217.556 C 150.173 214.485,144.666 213.589,141.000 214.889 M137.610 226.800 C 133.405 227.817,133.798 234.410,138.200 236.700 C 141.486 238.410,141.135 238.399,191.000 238.394 C 222.959 238.391,238.567 238.522,238.500 238.795 C 238.340 239.443,238.775 239.297,242.326 237.514 C 247.468 234.930,251.644 231.192,252.953 228.000 L 253.527 226.600 229.663 226.600 L 205.800 226.600 201.825 228.145 C 195.529 230.592,191.948 230.479,186.617 227.665 L 184.600 226.600 161.800 226.532 C 149.260 226.494,138.374 226.615,137.610 226.800 M236.600 239.695 C 236.160 239.953,233.280 241.024,230.200 242.073 C 227.120 243.122,224.901 243.985,225.268 243.990 C 226.227 244.004,234.704 241.078,236.600 240.079 C 237.480 239.615,238.020 239.233,237.800 239.230 C 237.580 239.227,237.040 239.436,236.600 239.695 " stroke="none" fill="#d1860e" fill-rule="evenodd"/>
    <path id="path3" d="M185.491 99.489 C 186.201 99.577,187.461 99.579,188.291 99.492 C 189.121 99.405,188.540 99.333,187.000 99.331 C 185.460 99.329,184.781 99.400,185.491 99.489 M177.375 102.900 L 176.200 104.200 177.500 103.025 C 178.712 101.930,178.984 101.600,178.675 101.600 C 178.606 101.600,178.021 102.185,177.375 102.900 M207.300 106.287 C 207.905 106.378,208.895 106.378,209.500 106.287 C 210.105 106.195,209.610 106.120,208.400 106.120 C 207.190 106.120,206.695 106.195,207.300 106.287 M186.105 106.687 C 186.714 106.779,187.614 106.777,188.105 106.682 C 188.597 106.587,188.100 106.511,187.000 106.514 C 185.900 106.517,185.497 106.595,186.105 106.687 M167.400 109.200 C 166.896 109.417,166.822 109.544,167.200 109.544 C 167.530 109.544,168.160 109.389,168.600 109.200 C 169.104 108.983,169.178 108.856,168.800 108.856 C 168.470 108.856,167.840 109.011,167.400 109.200 M233.762 111.700 C 233.006 112.593,233.006 112.595,233.800 111.936 C 234.240 111.572,235.050 111.191,235.600 111.091 L 236.600 110.909 235.562 110.854 C 234.929 110.821,234.227 111.151,233.762 111.700 M199.720 114.400 C 199.720 115.610,199.795 116.105,199.887 115.500 C 199.978 114.895,199.978 113.905,199.887 113.300 C 199.795 112.695,199.720 113.190,199.720 114.400 M216.893 113.600 C 216.893 114.370,216.975 114.685,217.076 114.300 C 217.176 113.915,217.176 113.285,217.076 112.900 C 216.975 112.515,216.893 112.830,216.893 113.600 M228.114 115.000 C 228.117 116.100,228.195 116.503,228.287 115.895 C 228.379 115.286,228.377 114.386,228.282 113.895 C 228.187 113.403,228.111 113.900,228.114 115.000 M157.656 114.000 C 157.656 114.330,157.811 114.960,158.000 115.400 C 158.217 115.904,158.344 115.978,158.344 115.600 C 158.344 115.270,158.189 114.640,158.000 114.200 C 157.783 113.696,157.656 113.622,157.656 114.000 M210.432 114.877 C 210.344 116.758,214.841 117.550,216.238 115.900 C 216.999 115.001,216.999 115.001,216.169 115.700 C 214.609 117.013,211.273 116.467,210.678 114.800 C 210.504 114.315,210.457 114.330,210.432 114.877 M186.689 119.044 C 186.530 119.203,186.433 120.428,186.474 121.767 L 186.548 124.200 186.695 122.100 C 186.839 120.037,187.364 119.323,187.724 120.700 C 187.866 121.244,187.918 121.261,187.954 120.776 C 188.014 119.969,187.065 118.669,186.689 119.044 M166.432 119.624 C 166.414 119.966,166.680 120.596,167.022 121.024 C 167.634 121.788,167.638 121.787,167.276 121.000 C 167.074 120.560,166.808 119.930,166.686 119.600 C 166.493 119.082,166.459 119.085,166.432 119.624 M212.000 120.600 C 212.746 121.370,213.447 122.000,213.557 122.000 C 213.667 122.000,213.146 121.370,212.400 120.600 C 211.654 119.830,210.953 119.200,210.843 119.200 C 210.733 119.200,211.254 119.830,212.000 120.600 M262.313 119.895 C 263.476 119.976,265.276 119.976,266.313 119.893 C 267.351 119.811,266.400 119.745,264.200 119.746 C 262.000 119.747,261.151 119.814,262.313 119.895 M203.600 122.600 C 204.346 123.370,205.047 124.000,205.157 124.000 C 205.267 124.000,204.746 123.370,204.000 122.600 C 203.254 121.830,202.553 121.200,202.443 121.200 C 202.333 121.200,202.854 121.830,203.600 122.600 M188.278 123.558 C 188.517 125.289,188.505 125.313,187.460 125.114 C 186.877 125.002,186.400 125.066,186.400 125.255 C 186.400 125.445,186.940 125.600,187.600 125.600 C 188.891 125.600,189.199 124.428,188.390 122.600 C 188.153 122.066,188.116 122.384,188.278 123.558 M205.600 124.125 C 205.600 124.194,206.185 124.779,206.900 125.425 L 208.200 126.600 207.025 125.300 C 205.930 124.088,205.600 123.816,205.600 124.125 M133.563 126.653 C 132.849 127.491,130.639 139.746,130.615 143.000 L 130.600 145.000 137.200 145.285 C 140.830 145.441,144.182 145.741,144.648 145.952 C 147.360 147.178,148.989 146.964,151.081 145.106 C 152.176 144.133,154.087 142.632,155.327 141.769 C 158.322 139.686,158.323 139.659,155.657 136.304 C 150.475 129.783,144.782 126.572,137.600 126.120 C 134.614 125.931,134.122 125.996,133.563 126.653 M259.600 126.397 C 250.742 127.004,246.981 128.563,241.800 133.779 C 237.029 138.581,236.678 139.689,239.453 141.177 C 240.119 141.534,242.567 143.040,244.893 144.523 L 249.123 147.219 252.061 146.419 C 255.458 145.495,260.964 144.808,265.020 144.803 C 266.676 144.801,268.038 144.602,268.320 144.320 C 268.924 143.716,269.009 126.976,268.410 126.606 C 267.690 126.161,264.239 126.079,259.600 126.397 M198.093 128.400 C 198.093 129.170,198.175 129.485,198.276 129.100 C 198.376 128.715,198.376 128.085,198.276 127.700 C 198.175 127.315,198.093 127.630,198.093 128.400 M196.056 128.800 C 196.056 129.130,196.211 129.760,196.400 130.200 C 196.617 130.704,196.744 130.778,196.744 130.400 C 196.744 130.070,196.589 129.440,196.400 129.000 C 196.183 128.496,196.056 128.422,196.056 128.800 M179.693 130.400 C 179.693 131.170,179.775 131.485,179.876 131.100 C 179.976 130.715,179.976 130.085,179.876 129.700 C 179.775 129.315,179.693 129.630,179.693 130.400 M205.862 130.900 C 205.964 131.065,206.476 131.200,207.000 131.200 C 207.524 131.200,208.036 131.065,208.138 130.900 C 208.240 130.735,207.728 130.600,207.000 130.600 C 206.272 130.600,205.760 130.735,205.862 130.900 M175.800 131.489 C 176.240 131.598,176.870 131.892,177.200 132.143 C 177.722 132.540,177.728 132.509,177.251 131.900 C 176.949 131.515,176.319 131.221,175.851 131.246 C 175.043 131.290,175.040 131.303,175.800 131.489 M186.080 131.680 C 185.816 131.944,185.618 132.529,185.640 132.980 C 185.674 133.677,185.721 133.652,185.954 132.815 C 186.115 132.240,186.640 131.715,187.215 131.554 C 188.052 131.321,188.077 131.274,187.380 131.240 C 186.929 131.218,186.344 131.416,186.080 131.680 M179.301 133.800 C 179.305 134.680,179.387 134.993,179.483 134.495 C 179.579 133.998,179.575 133.278,179.475 132.895 C 179.375 132.513,179.296 132.920,179.301 133.800 M275.693 134.800 C 275.693 135.570,275.775 135.885,275.876 135.500 C 275.976 135.115,275.976 134.485,275.876 134.100 C 275.775 133.715,275.693 134.030,275.693 134.800 M221.654 136.451 C 221.624 137.030,221.914 137.748,222.300 138.051 C 222.909 138.529,222.940 138.522,222.538 138.000 C 222.284 137.670,221.994 136.950,221.893 136.400 L 221.709 135.400 221.654 136.451 M228.100 138.100 C 227.670 139.275,227.680 139.326,228.212 138.624 C 228.721 137.952,229.021 136.800,228.688 136.800 C 228.626 136.800,228.361 137.385,228.100 138.100 M171.400 138.800 C 170.896 139.017,170.822 139.144,171.200 139.144 C 171.530 139.144,172.160 138.989,172.600 138.800 C 173.104 138.583,173.178 138.456,172.800 138.456 C 172.470 138.456,171.840 138.611,171.400 138.800 M276.531 145.000 C 276.533 146.540,276.605 147.121,276.692 146.291 C 276.779 145.461,276.777 144.201,276.689 143.491 C 276.600 142.781,276.529 143.460,276.531 145.000 M185.200 144.070 C 176.865 145.355,164.319 149.372,158.600 152.587 C 157.720 153.081,156.241 153.917,155.313 154.443 C 149.670 157.644,141.924 164.464,137.924 169.753 C 131.864 177.767,129.219 188.705,132.764 191.089 L 134.129 192.007 200.432 191.903 L 266.736 191.800 267.768 190.830 C 268.336 190.297,268.800 189.702,268.800 189.508 C 268.800 189.314,268.366 189.660,267.835 190.278 L 266.870 191.400 252.935 191.531 C 245.271 191.603,233.510 191.519,226.800 191.344 C 215.068 191.038,213.541 190.670,223.200 190.478 C 231.916 190.304,241.845 188.698,242.272 187.393 C 242.361 187.118,227.419 186.945,196.502 186.861 C 150.164 186.735,148.078 186.668,145.245 185.223 C 140.162 182.630,139.189 174.299,143.273 168.338 C 144.395 166.700,144.129 166.056,142.885 167.400 C 138.387 172.259,134.402 182.063,134.400 188.276 C 134.400 190.390,134.485 190.435,139.139 190.790 L 143.000 191.084 138.170 191.142 C 131.502 191.222,130.733 190.282,131.998 183.608 C 135.446 165.431,157.858 149.026,185.400 144.520 C 188.874 143.951,191.904 143.809,199.800 143.844 C 210.122 143.890,210.093 143.887,222.200 146.218 C 223.028 146.377,223.214 146.334,222.800 146.077 C 222.000 145.582,216.424 144.494,211.025 143.779 C 204.663 142.937,191.595 143.084,185.200 144.070 M227.400 147.778 C 234.665 150.138,241.640 153.383,246.800 156.804 C 248.010 157.606,249.271 158.361,249.602 158.481 C 250.205 158.700,254.461 162.027,255.617 163.183 C 255.956 163.522,257.049 164.520,258.046 165.400 C 259.042 166.280,258.332 165.510,256.468 163.689 C 252.029 159.353,238.132 150.400,235.841 150.400 C 235.722 150.400,234.673 149.968,233.512 149.439 C 231.120 148.350,224.856 146.380,223.979 146.440 C 223.661 146.461,225.200 147.064,227.400 147.778 M267.505 153.483 C 268.002 153.579,268.722 153.575,269.105 153.475 C 269.487 153.375,269.080 153.296,268.200 153.301 C 267.320 153.305,267.007 153.387,267.505 153.483 M137.385 156.500 L 135.400 158.600 137.500 156.615 C 138.655 155.523,139.600 154.578,139.600 154.515 C 139.600 154.217,139.229 154.549,137.385 156.500 M264.000 158.200 C 264.746 158.970,265.447 159.600,265.557 159.600 C 265.667 159.600,265.146 158.970,264.400 158.200 C 263.654 157.430,262.953 156.800,262.843 156.800 C 262.733 156.800,263.254 157.430,264.000 158.200 M261.043 168.838 C 261.716 169.629,262.940 171.384,263.762 172.738 C 264.585 174.092,265.350 175.200,265.462 175.200 C 265.990 175.200,261.995 169.258,260.756 168.200 C 260.134 167.669,260.230 167.883,261.043 168.838 M268.262 183.800 C 268.396 184.680,268.572 185.475,268.653 185.567 C 268.956 185.910,268.729 183.768,268.381 183.000 C 268.129 182.442,268.093 182.685,268.262 183.800 M278.470 190.051 C 278.419 191.398,278.591 192.052,279.100 192.451 C 279.712 192.931,279.740 192.923,279.328 192.392 C 279.068 192.058,278.784 190.978,278.697 189.992 L 278.540 188.200 278.470 190.051 M160.920 191.097 C 159.115 191.171,156.055 191.172,154.120 191.098 C 152.184 191.025,153.660 190.964,157.400 190.964 C 161.140 190.963,162.724 191.023,160.920 191.097 M194.500 191.096 C 193.125 191.174,190.875 191.174,189.500 191.096 C 188.125 191.018,189.250 190.954,192.000 190.954 C 194.750 190.954,195.875 191.018,194.500 191.096 M209.300 191.098 C 207.045 191.170,203.355 191.170,201.100 191.098 C 198.845 191.027,200.690 190.969,205.200 190.969 C 209.710 190.969,211.555 191.027,209.300 191.098 M286.924 206.600 C 286.926 207.920,287.001 208.412,287.090 207.693 C 287.179 206.974,287.177 205.894,287.086 205.293 C 286.995 204.692,286.922 205.280,286.924 206.600 M144.517 206.800 C 142.119 206.993,139.801 208.470,137.927 210.997 C 137.321 211.814,138.440 211.934,148.000 212.071 C 154.769 212.169,158.047 212.363,158.600 212.699 C 159.294 213.122,159.215 213.152,158.000 212.926 C 154.615 212.296,160.354 215.687,165.761 217.512 C 170.682 219.173,178.881 218.171,184.000 215.282 C 189.359 212.258,189.476 212.224,194.800 212.069 C 199.779 211.924,210.634 212.417,208.877 212.709 C 207.896 212.871,207.869 213.541,208.824 214.050 C 219.772 219.893,227.611 219.894,237.167 214.054 L 240.200 212.200 250.700 212.081 C 262.666 211.946,262.399 212.050,259.024 208.858 L 256.848 206.800 246.827 206.800 L 236.805 206.800 234.303 209.264 C 227.872 215.596,221.106 215.765,214.860 209.751 L 211.800 206.804 199.502 206.802 L 187.203 206.800 184.435 209.340 C 177.611 215.603,170.457 215.680,165.690 209.542 C 164.681 208.242,163.483 207.097,163.028 206.997 C 161.784 206.725,147.363 206.571,144.517 206.800 M143.891 214.289 C 144.601 214.377,145.861 214.379,146.691 214.292 C 147.521 214.205,146.940 214.133,145.400 214.131 C 143.860 214.129,143.181 214.200,143.891 214.289 M249.700 214.294 C 250.745 214.376,252.455 214.376,253.500 214.294 C 254.545 214.212,253.690 214.144,251.600 214.144 C 249.510 214.144,248.655 214.212,249.700 214.294 M148.833 214.547 C 148.925 214.628,149.720 214.804,150.600 214.938 C 151.715 215.107,151.958 215.071,151.400 214.819 C 150.632 214.471,148.490 214.244,148.833 214.547 M193.000 214.796 C 192.502 215.008,193.031 215.051,194.400 214.912 C 195.610 214.789,196.675 214.623,196.767 214.544 C 197.111 214.247,193.767 214.470,193.000 214.796 M198.433 214.544 C 198.525 214.624,199.410 214.796,200.400 214.927 C 201.602 215.086,201.934 215.047,201.400 214.810 C 200.636 214.472,198.086 214.243,198.433 214.544 M245.000 214.800 C 243.981 215.238,245.032 215.238,246.400 214.800 C 247.204 214.543,247.243 214.477,246.600 214.468 C 246.160 214.462,245.440 214.611,245.000 214.800 M256.433 214.547 C 256.525 214.628,257.320 214.804,258.200 214.938 C 259.315 215.107,259.558 215.071,259.000 214.819 C 258.232 214.471,256.090 214.244,256.433 214.547 M116.000 215.325 C 116.000 215.394,116.585 215.979,117.300 216.625 L 118.600 217.800 117.425 216.500 C 116.330 215.288,116.000 215.016,116.000 215.325 M137.756 216.281 C 136.841 216.917,135.376 217.470,134.200 217.625 L 132.200 217.887 133.944 217.944 C 135.442 217.992,139.600 216.072,139.600 215.333 C 139.600 215.059,139.270 215.229,137.756 216.281 M154.600 216.376 C 157.006 217.563,158.113 217.916,157.380 217.260 C 157.009 216.928,153.992 215.671,152.800 215.351 C 152.470 215.263,153.280 215.724,154.600 216.376 M187.899 216.715 C 185.973 217.494,184.468 218.202,184.554 218.288 C 184.734 218.467,190.694 216.198,191.600 215.605 C 192.658 214.913,191.489 215.263,187.899 216.715 M262.652 216.813 C 265.273 218.278,265.629 218.375,267.052 218.010 L 268.600 217.612 267.017 217.794 C 265.747 217.941,264.945 217.703,262.952 216.588 C 261.587 215.825,260.319 215.204,260.135 215.210 C 259.951 215.215,261.083 215.937,262.652 216.813 M206.600 217.215 C 207.920 217.845,209.180 218.356,209.400 218.350 C 209.914 218.336,205.133 216.060,204.600 216.065 C 204.380 216.067,205.280 216.584,206.600 217.215 M239.275 216.673 C 238.326 217.009,237.621 217.354,237.707 217.441 C 237.890 217.623,241.600 216.405,241.600 216.162 C 241.600 215.912,241.145 216.012,239.275 216.673 M235.400 218.214 C 234.400 218.696,234.366 218.751,235.200 218.548 C 236.333 218.271,237.607 217.621,237.000 217.630 C 236.780 217.633,236.060 217.896,235.400 218.214 M270.665 218.000 C 270.920 218.330,271.208 219.140,271.305 219.800 L 271.480 221.000 271.540 219.749 C 271.577 218.977,271.332 218.288,270.900 217.949 C 270.291 217.471,270.260 217.478,270.665 218.000 M280.480 218.080 C 280.216 218.344,280.021 218.929,280.046 219.380 C 280.092 220.183,280.097 220.184,280.289 219.400 C 280.398 218.960,280.669 218.375,280.892 218.100 C 281.410 217.462,281.112 217.448,280.480 218.080 M160.800 218.966 C 161.350 219.260,162.250 219.612,162.800 219.749 C 163.350 219.886,163.080 219.652,162.200 219.229 C 160.390 218.358,159.268 218.148,160.800 218.966 M211.044 219.011 C 211.728 219.311,212.808 219.664,213.444 219.795 C 214.080 219.925,213.700 219.665,212.600 219.216 C 210.394 218.317,209.060 218.140,211.044 219.011 M120.114 220.600 C 120.117 221.700,120.195 222.103,120.287 221.495 C 120.379 220.886,120.377 219.986,120.282 219.495 C 120.187 219.003,120.111 219.500,120.114 220.600 M165.000 220.400 C 165.440 220.589,166.160 220.738,166.600 220.732 C 167.243 220.723,167.204 220.657,166.400 220.400 C 165.032 219.962,163.981 219.962,165.000 220.400 M177.000 220.400 C 175.911 220.677,175.893 220.707,176.800 220.725 C 177.350 220.735,178.160 220.589,178.600 220.400 C 179.586 219.976,178.666 219.976,177.000 220.400 M215.400 220.400 C 215.840 220.589,216.650 220.738,217.200 220.732 L 218.200 220.720 217.200 220.400 C 216.650 220.224,215.840 220.074,215.400 220.068 L 214.600 220.056 215.400 220.400 M227.800 220.400 C 226.711 220.677,226.693 220.707,227.600 220.725 C 228.150 220.735,228.960 220.589,229.400 220.400 C 230.386 219.976,229.466 219.976,227.800 220.400 M128.801 220.646 C 128.799 221.318,130.391 223.205,130.929 223.168 C 131.228 223.148,131.206 223.059,130.867 222.924 C 130.574 222.807,129.990 222.146,129.569 221.456 C 129.148 220.765,128.802 220.401,128.801 220.646 M170.112 221.095 C 171.164 221.177,172.784 221.176,173.712 221.092 C 174.640 221.008,173.780 220.941,171.800 220.942 C 169.820 220.943,169.060 221.012,170.112 221.095 M220.500 221.094 C 221.545 221.176,223.255 221.176,224.300 221.094 C 225.345 221.012,224.490 220.944,222.400 220.944 C 220.310 220.944,219.455 221.012,220.500 221.094 M135.900 223.498 C 138.155 223.570,141.845 223.570,144.100 223.498 C 146.355 223.427,144.510 223.369,140.000 223.369 C 135.490 223.369,133.645 223.427,135.900 223.498 M180.200 223.615 C 181.740 223.783,183.520 224.124,184.155 224.372 C 184.791 224.620,185.394 224.740,185.495 224.638 C 185.892 224.241,181.341 223.203,179.427 223.254 C 177.517 223.305,177.561 223.326,180.200 223.615 M208.000 223.607 C 207.379 223.811,207.909 223.851,209.400 223.712 C 210.720 223.589,211.875 223.424,211.967 223.344 C 212.289 223.065,208.988 223.284,208.000 223.607 M252.300 223.499 C 255.435 223.567,260.565 223.567,263.700 223.499 C 266.835 223.432,264.270 223.376,258.000 223.376 C 251.730 223.376,249.165 223.432,252.300 223.499 M204.600 224.400 C 204.096 224.617,204.022 224.744,204.400 224.744 C 204.730 224.744,205.360 224.589,205.800 224.400 C 206.304 224.183,206.378 224.056,206.000 224.056 C 205.670 224.056,205.040 224.211,204.600 224.400 M186.033 224.949 C 186.445 225.317,188.800 226.400,188.800 226.221 C 188.800 225.990,186.582 224.800,186.153 224.800 C 185.996 224.800,185.942 224.867,186.033 224.949 M172.300 226.298 C 174.115 226.372,177.085 226.372,178.900 226.298 C 180.715 226.223,179.230 226.163,175.600 226.163 C 171.970 226.163,170.485 226.223,172.300 226.298 M233.491 226.289 C 234.201 226.377,235.461 226.379,236.291 226.292 C 237.121 226.205,236.540 226.133,235.000 226.131 C 233.460 226.129,232.781 226.200,233.491 226.289 M132.996 227.724 C 128.633 232.087,131.082 240.980,137.477 243.992 C 139.120 244.767,140.357 244.785,199.077 244.891 C 232.035 244.951,250.945 244.953,241.100 244.896 C 231.255 244.839,223.201 244.659,223.202 244.496 C 223.202 244.333,224.957 243.693,227.102 243.072 C 231.485 241.804,238.337 239.165,238.496 238.684 C 238.553 238.510,217.180 238.375,191.000 238.383 C 141.126 238.399,141.488 238.411,138.200 236.700 C 133.799 234.411,133.404 227.798,137.610 226.809 C 138.869 226.513,138.780 226.478,136.660 226.441 C 134.519 226.403,134.207 226.513,132.996 227.724 M184.000 226.792 C 184.770 226.957,186.390 227.555,187.600 228.121 C 188.810 228.687,190.340 229.252,191.000 229.377 C 191.660 229.502,191.930 229.493,191.600 229.355 C 191.270 229.218,189.679 228.497,188.064 227.753 C 186.450 227.009,184.560 226.421,183.864 226.446 L 182.600 226.492 184.000 226.792 M201.400 227.852 C 199.420 228.635,196.540 229.428,195.000 229.616 L 192.200 229.956 195.200 229.797 C 197.344 229.683,199.113 229.276,201.400 228.372 C 203.160 227.676,205.410 226.968,206.400 226.800 L 208.200 226.494 206.600 226.462 C 205.642 226.443,203.555 227.001,201.400 227.852 M244.518 226.698 C 246.233 226.773,248.933 226.772,250.518 226.697 C 252.103 226.621,250.700 226.559,247.400 226.560 C 244.100 226.561,242.803 226.622,244.518 226.698 M192.346 227.698 C 193.112 227.896,194.576 227.896,195.746 227.697 C 197.703 227.364,197.639 227.348,194.400 227.348 C 191.703 227.349,191.278 227.421,192.346 227.698 M121.331 233.000 C 121.333 234.540,121.405 235.121,121.492 234.291 C 121.579 233.461,121.577 232.201,121.489 231.491 C 121.400 230.781,121.329 231.460,121.331 233.000 M268.470 233.450 C 268.431 234.357,268.311 235.707,268.201 236.450 L 268.003 237.800 268.423 236.462 C 268.653 235.727,268.774 234.377,268.691 233.462 L 268.540 231.800 268.470 233.450 M278.093 234.800 C 278.093 235.570,278.175 235.885,278.276 235.500 C 278.376 235.115,278.376 234.485,278.276 234.100 C 278.175 233.715,278.093 234.030,278.093 234.800 M265.426 241.513 C 264.015 243.203,263.988 243.275,265.160 242.200 C 266.271 241.182,267.488 239.570,267.114 239.613 C 267.051 239.620,266.292 240.475,265.426 241.513 M261.800 244.022 C 260.920 244.438,260.434 244.784,260.720 244.790 C 261.302 244.801,263.600 243.684,263.600 243.390 C 263.600 243.156,263.718 243.114,261.800 244.022 M124.316 255.097 C 125.699 255.175,127.859 255.174,129.116 255.095 C 130.372 255.016,129.240 254.952,126.600 254.953 C 123.960 254.953,122.932 255.018,124.316 255.097 M149.720 255.098 C 151.655 255.172,154.715 255.171,156.520 255.097 C 158.324 255.023,156.740 254.963,153.000 254.964 C 149.260 254.964,147.784 255.025,149.720 255.098 M168.912 255.095 C 169.964 255.177,171.584 255.176,172.512 255.092 C 173.440 255.008,172.580 254.941,170.600 254.942 C 168.620 254.943,167.860 255.012,168.912 255.095 M208.300 255.093 C 209.235 255.177,210.765 255.177,211.700 255.093 C 212.635 255.009,211.870 254.940,210.000 254.940 C 208.130 254.940,207.365 255.009,208.300 255.093 M239.700 255.076 C 240.085 255.176,240.715 255.176,241.100 255.076 C 241.485 254.975,241.170 254.893,240.400 254.893 C 239.630 254.893,239.315 254.975,239.700 255.076 M243.700 255.076 C 244.085 255.176,244.715 255.176,245.100 255.076 C 245.485 254.975,245.170 254.893,244.400 254.893 C 243.630 254.893,243.315 254.975,243.700 255.076 M268.500 255.076 C 268.885 255.176,269.515 255.176,269.900 255.076 C 270.285 254.975,269.970 254.893,269.200 254.893 C 268.430 254.893,268.115 254.975,268.500 255.076 M249.800 257.600 C 250.659 258.480,251.452 259.200,251.562 259.200 C 251.672 259.200,251.059 258.480,250.200 257.600 C 249.341 256.720,248.548 256.000,248.438 256.000 C 248.328 256.000,248.941 256.720,249.800 257.600 M119.783 273.400 C 119.783 282.640,119.836 286.363,119.900 281.673 C 119.964 276.983,119.964 269.423,119.899 264.873 C 119.835 260.323,119.783 264.160,119.783 273.400 M138.200 258.400 C 139.059 259.280,139.852 260.000,139.962 260.000 C 140.072 260.000,139.459 259.280,138.600 258.400 C 137.741 257.520,136.948 256.800,136.838 256.800 C 136.728 256.800,137.341 257.520,138.200 258.400 M165.383 273.400 C 165.383 282.640,165.436 286.363,165.500 281.673 C 165.564 276.983,165.564 269.423,165.499 264.873 C 165.435 260.323,165.383 264.160,165.383 273.400 M200.183 273.200 C 200.183 282.330,200.235 286.065,200.300 281.500 C 200.364 276.935,200.364 269.465,200.300 264.900 C 200.235 260.335,200.183 264.070,200.183 273.200 M162.114 259.000 C 162.117 260.100,162.195 260.503,162.287 259.895 C 162.379 259.286,162.377 258.386,162.282 257.895 C 162.187 257.403,162.111 257.900,162.114 259.000 M191.382 273.000 C 191.382 281.800,191.435 285.343,191.500 280.873 C 191.564 276.404,191.564 269.204,191.499 264.873 C 191.435 260.543,191.382 264.200,191.382 273.000 M276.893 262.800 C 276.893 263.570,276.975 263.885,277.076 263.500 C 277.176 263.115,277.176 262.485,277.076 262.100 C 276.975 261.715,276.893 262.030,276.893 262.800 M285.693 263.600 C 285.693 264.370,285.775 264.685,285.876 264.300 C 285.976 263.915,285.976 263.285,285.876 262.900 C 285.775 262.515,285.693 262.830,285.693 263.600 M140.893 264.000 C 140.893 264.770,140.975 265.085,141.076 264.700 C 141.176 264.315,141.176 263.685,141.076 263.300 C 140.975 262.915,140.893 263.230,140.893 264.000 M157.300 263.087 C 157.905 263.178,158.895 263.178,159.500 263.087 C 160.105 262.995,159.610 262.920,158.400 262.920 C 157.190 262.920,156.695 262.995,157.300 263.087 M174.180 263.307 C 174.073 263.586,174.034 268.401,174.093 274.007 L 174.200 284.200 175.305 284.249 C 176.342 284.294,176.348 284.287,175.392 284.121 L 174.375 283.944 174.487 273.372 C 174.598 263.012,174.575 262.278,174.180 263.307 M271.300 266.276 C 271.685 266.376,272.315 266.376,272.700 266.276 C 273.085 266.175,272.770 266.093,272.000 266.093 C 271.230 266.093,270.915 266.175,271.300 266.276 M140.893 269.200 C 140.893 269.970,140.975 270.285,141.076 269.900 C 141.176 269.515,141.176 268.885,141.076 268.500 C 140.975 268.115,140.893 268.430,140.893 269.200 M179.357 273.600 C 179.357 276.570,179.420 277.785,179.497 276.300 C 179.574 274.815,179.574 272.385,179.497 270.900 C 179.420 269.415,179.357 270.630,179.357 273.600 M188.109 270.000 C 188.109 270.990,188.187 271.395,188.282 270.900 C 188.378 270.405,188.378 269.595,188.282 269.100 C 188.187 268.605,188.109 269.010,188.109 270.000 M227.754 273.200 C 227.754 275.950,227.818 277.075,227.896 275.700 C 227.974 274.325,227.974 272.075,227.896 270.700 C 227.818 269.325,227.754 270.450,227.754 273.200 M244.950 273.000 C 244.951 275.420,245.016 276.358,245.096 275.085 C 245.176 273.812,245.175 271.832,245.094 270.685 C 245.014 269.538,244.949 270.580,244.950 273.000 M153.700 269.487 C 154.305 269.578,155.295 269.578,155.900 269.487 C 156.505 269.395,156.010 269.320,154.800 269.320 C 153.590 269.320,153.095 269.395,153.700 269.487 M218.940 273.600 C 218.940 275.470,219.009 276.235,219.093 275.300 C 219.177 274.365,219.177 272.835,219.093 271.900 C 219.009 270.965,218.940 271.730,218.940 273.600 M254.131 273.000 C 254.133 274.540,254.205 275.121,254.292 274.291 C 254.379 273.461,254.377 272.201,254.289 271.491 C 254.200 270.781,254.129 271.460,254.131 273.000 M159.709 273.200 C 159.709 274.190,159.787 274.595,159.882 274.100 C 159.978 273.605,159.978 272.795,159.882 272.300 C 159.787 271.805,159.709 272.210,159.709 273.200 M260.400 273.400 C 261.146 274.170,261.847 274.800,261.957 274.800 C 262.067 274.800,261.546 274.170,260.800 273.400 C 260.054 272.630,259.353 272.000,259.243 272.000 C 259.133 272.000,259.654 272.630,260.400 273.400 M213.744 278.400 C 213.744 280.490,213.812 281.345,213.894 280.300 C 213.976 279.255,213.976 277.545,213.894 276.500 C 213.812 275.455,213.744 276.310,213.744 278.400 M188.101 277.000 C 188.105 277.880,188.187 278.193,188.283 277.695 C 188.379 277.198,188.375 276.478,188.275 276.095 C 188.175 275.713,188.096 276.120,188.101 277.000 M152.667 277.067 C 152.299 277.435,152.329 283.509,152.700 283.738 C 152.865 283.840,153.000 282.321,153.000 280.362 C 153.000 278.403,152.985 276.800,152.967 276.800 C 152.948 276.800,152.813 276.920,152.667 277.067 M253.701 278.200 C 253.705 279.080,253.787 279.393,253.883 278.895 C 253.979 278.398,253.975 277.678,253.875 277.295 C 253.775 276.913,253.696 277.320,253.701 278.200 M268.045 279.381 C 268.400 279.831,268.890 280.560,269.133 281.000 C 269.377 281.440,269.581 281.578,269.588 281.306 C 269.595 281.035,269.105 280.306,268.500 279.687 C 267.895 279.068,267.690 278.930,268.045 279.381 M260.305 279.083 C 260.802 279.179,261.522 279.175,261.905 279.075 C 262.287 278.975,261.880 278.896,261.000 278.901 C 260.120 278.905,259.807 278.987,260.305 279.083 M244.454 281.067 C 244.425 281.544,244.296 282.264,244.170 282.667 C 243.952 283.361,243.964 283.362,244.396 282.688 C 244.647 282.297,244.775 281.577,244.681 281.088 C 244.509 280.201,244.509 280.201,244.454 281.067 M256.509 283.200 C 256.509 284.190,256.587 284.595,256.682 284.100 C 256.778 283.605,256.778 282.795,256.682 282.300 C 256.587 281.805,256.509 282.210,256.509 283.200 M128.101 288.200 C 128.105 289.080,128.187 289.393,128.283 288.895 C 128.379 288.398,128.375 287.678,128.275 287.295 C 128.175 286.913,128.096 287.320,128.101 288.200 M235.182 290.178 C 235.880 291.019,237.995 292.138,238.304 291.829 C 238.430 291.703,238.348 291.600,238.122 291.600 C 237.897 291.600,237.016 291.128,236.167 290.552 C 235.317 289.975,234.874 289.807,235.182 290.178 M152.917 291.897 C 154.411 291.974,156.751 291.974,158.117 291.896 C 159.482 291.818,158.260 291.755,155.400 291.755 C 152.540 291.756,151.422 291.820,152.917 291.897 M226.562 296.900 C 225.801 297.799,225.801 297.799,226.631 297.100 C 227.089 296.715,227.615 296.400,227.800 296.400 C 227.985 296.400,228.511 296.715,228.969 297.100 C 229.799 297.799,229.799 297.799,229.038 296.900 C 228.619 296.405,228.062 296.000,227.800 296.000 C 227.538 296.000,226.981 296.405,226.562 296.900 M122.300 301.489 C 123.015 301.578,124.185 301.578,124.900 301.489 C 125.615 301.401,125.030 301.328,123.600 301.328 C 122.170 301.328,121.585 301.401,122.300 301.489 M148.500 301.498 C 150.645 301.570,154.155 301.570,156.300 301.498 C 158.445 301.426,156.690 301.367,152.400 301.367 C 148.110 301.367,146.355 301.426,148.500 301.498 M174.900 301.476 C 175.285 301.576,175.915 301.576,176.300 301.476 C 176.685 301.375,176.370 301.293,175.600 301.293 C 174.830 301.293,174.515 301.375,174.900 301.476 M194.300 301.493 C 195.235 301.577,196.765 301.577,197.700 301.493 C 198.635 301.409,197.870 301.340,196.000 301.340 C 194.130 301.340,193.365 301.409,194.300 301.493 M206.305 301.483 C 206.802 301.579,207.522 301.575,207.905 301.475 C 208.287 301.375,207.880 301.296,207.000 301.301 C 206.120 301.305,205.807 301.387,206.305 301.483 M213.905 301.483 C 214.402 301.579,215.122 301.575,215.505 301.475 C 215.887 301.375,215.480 301.296,214.600 301.301 C 213.720 301.305,213.407 301.387,213.905 301.483 M241.300 301.876 C 241.685 301.976,242.315 301.976,242.700 301.876 C 243.085 301.775,242.770 301.693,242.000 301.693 C 241.230 301.693,240.915 301.775,241.300 301.876 M266.500 301.887 C 267.105 301.978,268.095 301.978,268.700 301.887 C 269.305 301.795,268.810 301.720,267.600 301.720 C 266.390 301.720,265.895 301.795,266.500 301.887 " stroke="none" fill="#ae2c23" fill-rule="evenodd"/>
    <path id="path4" d="M205.055 107.361 C 199.010 109.612,198.691 116.310,204.357 122.000 C 209.823 127.488,210.719 129.263,208.869 130.938 C 207.155 132.488,204.011 131.010,203.994 128.646 C 203.981 126.861,201.728 125.667,199.773 126.410 C 197.819 127.153,198.980 132.577,201.453 134.259 C 207.611 138.447,215.696 135.421,215.744 128.911 C 215.766 125.825,215.091 124.669,210.506 119.944 C 206.396 115.708,205.348 113.371,206.959 112.034 C 208.567 110.699,211.200 112.063,211.200 114.230 C 211.200 115.326,212.245 116.000,213.945 116.000 C 217.656 116.000,216.981 110.460,212.968 107.980 C 211.156 106.860,207.226 106.553,205.055 107.361 M184.477 107.485 C 183.131 107.743,182.924 108.547,181.821 117.800 C 179.655 135.969,179.655 136.400,181.823 136.400 C 183.996 136.400,184.753 135.745,185.035 133.623 C 185.371 131.091,185.826 130.727,188.468 130.878 L 190.600 131.000 191.200 132.806 C 192.176 135.743,193.086 136.232,195.719 135.231 C 197.037 134.730,196.558 131.719,193.417 120.747 C 189.248 106.185,189.480 106.529,184.477 107.485 M222.439 109.156 C 221.702 109.638,222.060 114.107,223.431 121.530 L 224.436 126.971 223.340 131.893 C 222.062 137.628,222.142 137.865,225.481 138.260 C 227.837 138.540,227.479 139.134,229.012 132.402 C 230.120 127.532,230.721 126.434,237.766 116.400 C 240.016 113.195,240.052 112.662,238.054 112.063 C 234.768 111.079,234.464 111.271,232.145 115.800 C 228.844 122.246,228.046 121.861,227.379 113.494 C 227.125 110.324,226.577 109.205,225.271 109.195 C 224.902 109.192,224.240 109.099,223.800 108.989 C 223.360 108.879,222.748 108.954,222.439 109.156 M165.732 110.418 C 160.928 111.532,158.400 112.483,158.400 113.175 C 158.400 113.370,159.197 116.561,160.170 120.265 C 161.144 123.969,162.539 129.768,163.270 133.151 C 164.855 140.482,164.239 140.082,171.359 138.392 C 178.033 136.809,178.316 136.632,177.667 134.465 C 176.924 131.986,176.429 131.782,173.533 132.760 C 169.306 134.187,168.726 133.849,168.166 129.630 C 167.870 127.398,167.870 127.398,171.500 126.424 C 173.373 125.921,173.602 125.274,172.761 122.860 C 172.281 121.482,171.358 121.266,168.925 121.964 C 167.177 122.465,166.606 121.906,165.775 118.879 C 164.949 115.869,165.024 115.757,168.416 114.965 C 171.728 114.193,172.136 113.826,171.872 111.862 C 171.517 109.211,171.228 109.143,165.732 110.418 M187.521 117.900 C 189.319 121.507,189.506 125.742,187.876 125.929 C 185.645 126.185,185.457 125.374,186.243 118.900 C 186.460 117.108,186.939 116.733,187.521 117.900 M195.823 155.289 C 194.694 156.900,195.051 158.686,196.671 159.539 C 198.784 160.651,200.512 157.651,199.186 155.174 C 198.601 154.080,196.622 154.148,195.823 155.289 M181.782 155.782 C 179.747 157.817,181.308 160.924,183.884 159.966 C 184.964 159.565,185.664 157.362,185.081 156.200 C 184.243 154.528,183.172 154.392,181.782 155.782 M210.880 155.680 C 209.977 156.583,210.292 159.111,211.397 159.835 C 212.593 160.619,214.371 160.304,214.463 159.292 C 214.720 156.485,212.407 154.153,210.880 155.680 M227.680 158.880 C 226.390 160.170,228.008 163.200,229.986 163.200 C 231.766 163.200,232.177 161.241,230.771 159.454 C 229.895 158.340,228.482 158.078,227.680 158.880 M167.420 160.138 C 166.210 161.725,166.145 162.445,167.131 163.338 C 168.792 164.841,171.200 163.213,171.200 160.589 C 171.200 158.371,168.971 158.105,167.420 160.138 M253.126 162.900 C 258.574 170.853,257.516 178.768,250.355 183.630 C 245.061 187.225,237.494 190.388,234.142 190.406 C 233.258 190.411,233.135 190.500,233.600 190.800 C 234.385 191.307,265.205 191.331,266.535 190.825 C 269.977 189.516,267.505 178.626,262.050 171.069 C 258.358 165.956,249.941 158.250,253.126 162.900 M240.480 164.480 C 239.255 165.705,241.000 169.600,242.774 169.600 C 243.630 169.600,244.800 168.377,244.800 167.482 C 244.800 165.637,241.569 163.391,240.480 164.480 M155.494 165.700 C 155.132 165.975,154.648 166.707,154.418 167.326 C 153.430 169.988,155.751 171.892,157.584 169.925 C 159.660 167.697,157.804 163.946,155.494 165.700 M197.280 168.880 C 196.595 169.565,196.686 171.829,197.429 172.571 C 198.799 173.942,200.800 172.742,200.800 170.549 C 200.800 169.085,200.163 168.400,198.800 168.400 C 198.228 168.400,197.544 168.616,197.280 168.880 M180.029 169.854 C 178.710 171.530,179.461 174.400,181.218 174.400 C 182.034 174.400,183.600 172.422,183.600 171.392 C 183.600 168.789,181.558 167.910,180.029 169.854 M212.777 169.861 C 211.920 172.115,214.024 174.609,215.796 173.440 C 216.915 172.701,216.999 171.161,215.990 169.878 C 214.858 168.439,213.321 168.430,212.777 169.861 M230.900 171.065 C 230.060 171.404,230.276 174.676,231.200 175.600 C 232.921 177.321,235.084 176.237,234.640 173.874 C 234.214 171.602,232.590 170.383,230.900 171.065 M252.647 228.707 C 250.206 233.524,239.784 239.945,229.749 242.815 C 224.364 244.355,225.295 244.457,243.400 244.314 C 262.121 244.166,261.666 244.222,264.408 241.745 C 266.957 239.443,267.781 237.550,267.783 234.000 C 267.785 228.161,266.453 227.083,258.962 226.864 L 253.660 226.709 252.647 228.707 M121.300 256.191 L 120.400 256.845 120.400 273.134 C 120.400 291.972,120.258 291.200,123.734 291.200 C 127.306 291.200,127.514 290.863,127.668 284.832 C 127.822 278.819,127.584 279.255,130.975 278.775 C 137.314 277.877,139.984 274.771,140.317 267.905 C 140.627 261.519,138.796 257.851,134.600 256.459 C 131.959 255.582,122.402 255.389,121.300 256.191 M145.500 256.032 C 144.477 256.628,144.411 290.565,145.433 290.957 C 145.781 291.091,149.263 291.200,153.171 291.200 C 161.457 291.200,161.600 291.141,161.600 287.697 C 161.600 284.677,161.017 284.263,157.236 284.595 C 152.322 285.026,152.000 284.774,152.000 280.490 C 152.000 276.187,152.153 276.000,155.666 276.000 C 158.853 276.000,159.420 275.425,159.092 272.522 C 158.842 270.301,159.015 270.425,155.757 270.135 C 152.099 269.810,152.000 269.701,152.000 266.000 C 152.000 262.038,152.114 261.944,156.786 262.087 C 160.067 262.188,160.524 262.115,161.062 261.400 C 161.889 260.301,161.572 256.861,160.576 256.133 C 159.679 255.477,146.602 255.390,145.500 256.032 M166.662 256.331 C 165.730 257.361,165.646 289.366,166.572 290.624 C 168.095 292.693,180.062 291.179,183.226 288.517 C 190.184 282.662,189.220 262.186,181.770 257.582 C 178.809 255.751,167.997 254.857,166.662 256.331 M192.800 256.400 C 192.027 257.173,192.000 257.733,192.000 273.178 L 192.000 289.155 192.966 290.278 C 194.269 291.792,197.684 291.877,198.860 290.425 C 199.997 289.021,200.005 257.291,198.869 256.262 C 197.764 255.263,193.848 255.352,192.800 256.400 M205.955 256.445 C 205.285 257.115,205.160 257.592,205.351 258.745 C 205.483 259.545,205.593 267.004,205.596 275.320 L 205.600 290.441 207.095 291.065 C 209.480 292.062,217.318 291.276,220.319 289.739 C 229.794 284.889,229.762 261.772,220.275 257.248 C 216.679 255.534,207.387 255.013,205.955 256.445 M237.800 256.223 C 228.540 259.505,228.227 286.063,237.394 290.778 C 247.618 296.038,255.141 285.620,253.270 268.793 C 252.025 257.594,246.531 253.130,237.800 256.223 M262.504 256.264 C 254.624 259.053,255.904 270.064,264.800 276.013 C 270.005 279.494,271.538 282.282,269.500 284.563 C 267.438 286.870,263.600 285.248,263.600 282.069 C 263.600 279.645,260.726 278.744,258.362 280.427 C 257.360 281.141,257.201 281.512,257.209 283.127 C 257.255 292.988,272.615 295.558,276.766 286.400 C 279.176 281.085,276.734 275.108,270.400 270.822 C 265.863 267.752,263.810 264.334,265.314 262.358 C 266.714 260.520,269.351 261.188,269.984 263.541 C 270.775 266.480,276.416 265.907,276.391 262.891 C 276.347 257.350,269.144 253.913,262.504 256.264 M244.588 263.370 C 246.638 266.115,245.779 282.846,243.501 284.539 C 240.486 286.778,238.878 283.993,238.538 275.949 C 238.037 264.060,240.804 258.305,244.588 263.370 M132.055 263.133 C 135.056 265.814,133.563 271.867,129.711 272.638 C 127.916 272.997,127.597 272.097,127.750 267.106 C 127.922 261.516,129.065 260.461,132.055 263.133 M176.788 262.594 C 179.427 263.959,179.786 265.095,179.935 272.562 C 180.127 282.216,179.099 284.989,175.426 284.719 L 173.800 284.600 173.693 273.849 C 173.570 261.367,173.675 260.984,176.788 262.594 M217.306 263.509 C 220.715 266.751,220.182 282.695,216.611 284.322 C 213.251 285.853,213.313 286.042,213.051 273.511 C 212.793 261.180,213.388 259.782,217.306 263.509 " stroke="none" fill="#f5e1ab" fill-rule="evenodd"/>
  </g>
</svg>